<svg id="icon-invitation-fill-circle-xl-bold" xmlns="http://www.w3.org/2000/svg" xmlns:xlink="http://www.w3.org/1999/xlink" width="60" height="60" viewBox="0 0 60 60">
  <defs>
    <clipPath id="clip-path">
      <rect id="사각형_5400" data-name="사각형 5400" width="28" height="20" fill="none"/>
    </clipPath>
  </defs>
  <g id="invitation-circle-line-big">
    <g id="타원_415" data-name="타원 415" transform="translate(5 5)" fill="#fff" stroke="#51c1b1" stroke-width="2">
      <circle cx="25" cy="25" r="25" stroke="none"/>
      <circle cx="25" cy="25" r="24" fill="none"/>
    </g>
  </g>
  <rect id="사각형_5399" data-name="사각형 5399" width="60" height="60" fill="none"/>
  <g id="icon-invitation-fill-teal-m-bold" transform="translate(12 12)">
    <rect id="사각형_2934" data-name="사각형 2934" width="36" height="36" fill="none"/>
    <g id="그룹_6529" data-name="그룹 6529" transform="translate(0 3)">
      <g id="패스_1552" data-name="패스 1552" transform="translate(-1691.132 153.824)" fill="none" stroke-linecap="round" stroke-linejoin="round">
        <path d="M1697.132-141.188v14.364h24v-14.364l-12.066-7.636Z" stroke="none"/>
        <path d="M 1709.065551757812 -148.8239135742188 L 1697.1318359375 -141.1875457763672 L 1697.1318359375 -126.8239135742188 L 1721.1318359375 -126.8239135742188 L 1721.1318359375 -141.1875457763672 L 1709.065551757812 -148.8239135742188 M 1709.065551757812 -150.8239135742188 C 1709.43701171875 -150.8239135742188 1709.808471679688 -150.7206115722656 1710.135131835938 -150.5138854980469 L 1722.201416015625 -142.8775329589844 C 1722.780639648438 -142.5109100341797 1723.1318359375 -141.8731079101562 1723.1318359375 -141.1875457763672 L 1723.1318359375 -126.8239135742188 C 1723.1318359375 -125.7193450927734 1722.236450195312 -124.8239135742188 1721.1318359375 -124.8239135742188 L 1697.1318359375 -124.8239135742188 C 1696.027221679688 -124.8239135742188 1695.1318359375 -125.7193450927734 1695.1318359375 -126.8239135742188 L 1695.1318359375 -141.1875457763672 C 1695.1318359375 -141.8695678710938 1695.479370117188 -142.5045623779297 1696.053833007812 -142.8721618652344 L 1707.987548828125 -150.5085144042969 C 1708.316040039062 -150.7187194824219 1708.690795898438 -150.8239135742188 1709.065551757812 -150.8239135742188 Z" stroke="none" fill="#51c1b1"/>
      </g>
      <path id="패스_1550" data-name="패스 1550" d="M1832.126-118.064v-19.286h15v19.286Z" transform="translate(-1821.626 139.35)" fill="#f6fcfb" stroke="#51c1b1" stroke-linecap="round" stroke-linejoin="round" stroke-width="2"/>
      <path id="패스_2930" data-name="패스 2930" d="M7.075,3A1.9,1.9,0,0,1,9,4.946C9,7.216,6.375,8.514,5.5,9,4.625,8.514,2,7.216,2,4.946A1.906,1.906,0,0,1,3.925,3,2.4,2.4,0,0,1,5.5,3.649,2.4,2.4,0,0,1,7.075,3Z" transform="translate(12.5 4.5)" fill="#51c1b1"/>
      <path id="패스_2932" data-name="패스 2932" d="M-9600.069-16155.971v15.735h26.158v-15.735l-12.909,9.139Z" transform="translate(9605 16167.613)" fill="#fff"/>
      <g id="그룹_6528" data-name="그룹 6528" transform="translate(4 10.999)">
        <g id="그룹_6527" data-name="그룹 6527" transform="translate(0 0)" clip-path="url(#clip-path)">
          <path id="패스_2931" data-name="패스 2931" d="M2,2.135l11.1,7.917a1.891,1.891,0,0,0,1.789,0L26,2.135V15.868H2ZM26,0A1.887,1.887,0,0,0,25.1.228L14,8.145,2.894.228A1.883,1.883,0,0,0,2,0,2.07,2.07,0,0,0,0,2.135V15.868A2.068,2.068,0,0,0,2,18H26a2.069,2.069,0,0,0,2-2.132V2.135A2.07,2.07,0,0,0,26,0" transform="translate(0 -0.001)" fill="#51c1b1"/>
        </g>
      </g>
    </g>
  </g>
</svg>
